<svg xmlns="http://www.w3.org/2000/svg" width="512" height="512" fill="none" viewBox="0 0 512 512"><linearGradient id="a" x1="34.908699" x2="7.6322398" y1="61.028999" y2="13.7847" gradientTransform="scale(8.12736 8.12746)" gradientUnits="userSpaceOnUse"><stop offset="0" stop-color="#1e8e3e"/><stop offset="1" stop-color="#34a853"/></linearGradient><linearGradient id="b" x1="26.904301" x2="54.180801" y1="63.0788" y2="15.8345" gradientTransform="scale(8.12736 8.12746)" gradientUnits="userSpaceOnUse"><stop offset="0" stop-color="#fcc934"/><stop offset="1" stop-color="#fbbc04"/></linearGradient><linearGradient id="c" x1="4.2214499" x2="58.774502" y1="19.6884" y2="19.6884" gradientTransform="scale(8.12736 8.12746)" gradientUnits="userSpaceOnUse"><stop offset="0" stop-color="#d93025"/><stop offset="1" stop-color="#ea4335"/></linearGradient><path fill="#fff" d="M256.004 383.995c70.695 0 128.006-57.31 128.006-128.008 0-70.696-57.31-128.007-128.006-128.007s-128.006 57.31-128.006 128.007 57.31 128.008 128.006 128.008z"/><path fill="url(#a)" d="M145.147 320.02 34.31 128.04A255.954 255.954 0 0 0 256.022 512L366.86 320.02v-.034a127.972 127.972 0 0 1-110.847 64.047 127.977 127.977 0 0 1-110.866-64.013z"/><path fill="url(#b)" d="m366.852 320.011-110.838 191.98A255.953 255.953 0 0 0 477.672 128H255.996l-.028.017a127.984 127.984 0 0 1 128.045 127.985c-.001 22.473-5.92 44.55-17.16 64.01z"/><path fill="#1a73e8" d="M256.004 357.355c55.967 0 101.338-45.372 101.338-101.34s-45.37-101.34-101.338-101.34c-55.968 0-101.338 45.372-101.338 101.34s45.37 101.34 101.338 101.34z"/><path fill="url(#c)" d="M256.004 128.008h221.677A255.959 255.959 0 0 0 255.986 0 255.945 255.945 0 0 0 34.309 128.038l110.838 191.98.029.016a127.987 127.987 0 0 1-.04-128.02 127.974 127.974 0 0 1 110.868-64.007z"/></svg>